<?xml version="1.0" encoding="utf-8"?>
<!-- Generator: Adobe Illustrator 16.0.0, SVG Export Plug-In . SVG Version: 6.00 Build 0)  -->
<!DOCTYPE svg PUBLIC "-//W3C//DTD SVG 1.1//EN" "http://www.w3.org/Graphics/SVG/1.1/DTD/svg11.dtd">
<svg version="1.1" id="Layer_1" xmlns="http://www.w3.org/2000/svg" xmlns:xlink="http://www.w3.org/1999/xlink" x="0px" y="0px"
	 width="600px" height="122px" viewBox="0 0 600 122" enable-background="new 0 0 600 122" xml:space="preserve">
<circle fill="#00B4C9" cx="123.25" cy="61" r="58"/>
<g>
	<path fill="#666666" d="M244.502,63.623h-22.17l-7.614,19.26H210.5l21.947-54.792h2.426l21.499,54.792h-4.292L244.502,63.623z
		 M223.712,60.189h19.521l-7.427-19.67c-0.623-1.542-1.369-3.682-2.24-6.42c-0.672,2.389-1.406,4.554-2.202,6.495L223.712,60.189z"
		/>
	<path fill="#666666" d="M280.52,83.629c-6.246,0-10.8-2.338-13.661-7.017h-0.261l0.112,3.135c0.099,1.842,0.149,3.857,0.149,6.047
		v15.452h-3.695V42.311h3.135l0.709,5.785h0.224c2.787-4.379,7.241-6.569,13.362-6.569c5.474,0,9.648,1.798,12.522,5.393
		c2.874,3.596,4.311,8.828,4.311,15.695c0,6.669-1.512,11.839-4.535,15.509C289.87,81.795,285.746,83.629,280.52,83.629z
		 M280.445,80.345c4.155,0,7.372-1.543,9.648-4.628s3.415-7.402,3.415-12.951c0-11.919-4.305-17.879-12.914-17.879
		c-4.728,0-8.199,1.301-10.414,3.901c-2.215,2.6-3.322,6.836-3.322,12.709v1.194c0,6.345,1.063,10.874,3.191,13.586
		C272.178,78.989,275.643,80.345,280.445,80.345z"/>
	<path fill="#666666" d="M326.02,83.629c-6.246,0-10.801-2.338-13.661-7.017h-0.261l0.111,3.135c0.1,1.842,0.149,3.857,0.149,6.047
		v15.452h-3.695V42.311h3.136l0.709,5.785h0.224c2.786-4.379,7.241-6.569,13.362-6.569c5.474,0,9.648,1.798,12.522,5.393
		c2.874,3.596,4.311,8.828,4.311,15.695c0,6.669-1.512,11.839-4.534,15.509C335.369,81.795,331.244,83.629,326.02,83.629z
		 M325.944,80.345c4.155,0,7.372-1.543,9.648-4.628s3.415-7.402,3.415-12.951c0-11.919-4.305-17.879-12.914-17.879
		c-4.728,0-8.199,1.301-10.414,3.901s-3.321,6.836-3.321,12.709v1.194c0,6.345,1.063,10.874,3.19,13.586
		C317.678,78.989,321.142,80.345,325.944,80.345z"/>
	<path fill="#666666" d="M374.951,82.883V28.314h3.807V79.3h26.016v3.583H374.951z"/>
	<path fill="#666666" d="M446.801,62.541c0,6.619-1.604,11.789-4.814,15.508c-3.21,3.721-7.64,5.58-13.288,5.58
		c-3.559,0-6.693-0.858-9.405-2.575c-2.713-1.717-4.791-4.18-6.233-7.39c-1.443-3.21-2.165-6.918-2.165-11.123
		c0-6.619,1.605-11.776,4.815-15.471c3.21-3.695,7.614-5.542,13.213-5.542c5.573,0,9.946,1.873,13.119,5.617
		C445.215,50.89,446.801,56.021,446.801,62.541z M414.776,62.541c0,5.574,1.226,9.923,3.677,13.045
		c2.45,3.123,5.916,4.685,10.395,4.685c4.479,0,7.944-1.562,10.396-4.685c2.45-3.122,3.676-7.471,3.676-13.045
		c0-5.599-1.238-9.94-3.714-13.026c-2.476-3.085-5.953-4.628-10.432-4.628c-4.479,0-7.932,1.537-10.357,4.61
		C415.989,52.569,414.776,56.918,414.776,62.541z"/>
	<path fill="#666666" d="M489.687,42.311v2.575l-8.398,0.523c2.24,2.787,3.359,5.848,3.359,9.182c0,3.907-1.301,7.073-3.9,9.499
		c-2.601,2.426-6.09,3.64-10.47,3.64c-1.842,0-3.135-0.075-3.882-0.225c-1.468,0.771-2.588,1.68-3.358,2.725
		c-0.771,1.045-1.157,2.153-1.157,3.322c0,1.294,0.491,2.239,1.474,2.837c0.983,0.597,2.632,0.896,4.946,0.896h7.092
		c4.404,0,7.775,0.89,10.114,2.669s3.509,4.41,3.509,7.894c0,4.279-1.735,7.583-5.207,9.91c-3.471,2.326-8.416,3.489-14.836,3.489
		c-5.102,0-9.052-0.982-11.851-2.948c-2.8-1.966-4.199-4.703-4.199-8.211c0-2.787,0.864-5.102,2.594-6.942
		c1.729-1.842,4.074-3.099,7.036-3.771c-1.22-0.522-2.196-1.263-2.931-2.221c-0.733-0.957-1.101-2.059-1.101-3.303
		c0-2.712,1.729-5.101,5.188-7.167c-2.364-0.97-4.206-2.494-5.524-4.572c-1.319-2.077-1.979-4.46-1.979-7.147
		c0-4.055,1.288-7.309,3.863-9.76c2.575-2.451,6.053-3.676,10.433-3.676c2.662,0,4.728,0.261,6.195,0.784H489.687z M456.841,89.751
		c0,5.573,4.143,8.36,12.429,8.36c10.65,0,15.976-3.396,15.976-10.189c0-2.439-0.834-4.206-2.501-5.301
		c-1.667-1.094-4.367-1.642-8.1-1.642h-6.644C460.561,80.979,456.841,83.902,456.841,89.751z M459.938,54.964
		c0,3.136,0.952,5.567,2.855,7.298c1.903,1.729,4.447,2.594,7.633,2.594c3.384,0,5.978-0.858,7.782-2.576
		c1.804-1.717,2.706-4.205,2.706-7.465c0-3.458-0.927-6.052-2.78-7.782c-1.854-1.729-4.448-2.594-7.782-2.594
		c-3.235,0-5.779,0.927-7.633,2.781C460.865,49.073,459.938,51.655,459.938,54.964z"/>
	<path fill="#666666" d="M531.564,62.541c0,6.619-1.604,11.789-4.814,15.508c-3.21,3.721-7.64,5.58-13.288,5.58
		c-3.559,0-6.693-0.858-9.405-2.575c-2.713-1.717-4.791-4.18-6.233-7.39c-1.443-3.21-2.165-6.918-2.165-11.123
		c0-6.619,1.605-11.776,4.815-15.471c3.21-3.695,7.614-5.542,13.213-5.542c5.573,0,9.946,1.873,13.119,5.617
		C529.979,50.89,531.564,56.021,531.564,62.541z M499.54,62.541c0,5.574,1.226,9.923,3.677,13.045
		c2.45,3.123,5.916,4.685,10.395,4.685c4.479,0,7.944-1.562,10.396-4.685c2.45-3.122,3.676-7.471,3.676-13.045
		c0-5.599-1.238-9.94-3.714-13.026c-2.476-3.085-5.953-4.628-10.432-4.628c-4.479,0-7.932,1.537-10.357,4.61
		C500.753,52.569,499.54,56.918,499.54,62.541z"/>
</g>
</svg>
